<?xml version="1.0" encoding="iso-8859-1"?>
<svg fill="#e8eaf6" height="100px" width="100px" version="1.1" id="Layer_1" xmlns="http://www.w3.org/2000/svg" xmlns:xlink="http://www.w3.org/1999/xlink"
	 viewBox="0 0 511.997 511.997" xml:space="preserve">
<g>
	<g>
		<path d="M505.377,108.857c-10.08-17.085-28.738-25.748-55.452-25.748c-28.436,0-68.32,10.006-115.504,28.953
			c-23.569-12.854-50.409-20.026-78.424-20.026c-90.132,0-163.502,73.103-163.953,163.13
			c-14.152,11.554-26.995,22.953-38.177,33.915c-6.126,6.008-11.816,11.946-16.911,17.647c-2.907,3.253-2.626,8.246,0.628,11.153
			c3.253,2.908,8.247,2.625,11.153-0.628c4.863-5.444,10.31-11.126,16.189-16.892c8.457-8.289,17.901-16.851,28.186-25.556
			c0.082,0.722,0.181,1.442,0.274,2.162c0.062,0.482,0.117,0.966,0.183,1.447c0.161,1.177,0.338,2.352,0.524,3.525
			c0.006,0.04,0.012,0.08,0.018,0.12c1.283,8.031,3.156,15.949,5.624,23.701c-2.595,2.316-5.093,4.592-7.462,6.797
			c-10.093,9.397-43.4,41.645-48.187,62.071c-0.972,4.144,1.514,8.312,5.621,9.426c3.254,0.884,7.413,1.331,12.362,1.331
			c18.516,0,46.866-6.55,79.846-18.449c0.03-0.011,0.058-0.021,0.087-0.032c42.509-15.345,90.782-38.68,139.612-67.492
			c21.864-12.9,43.051-26.474,62.974-40.346c3.58-2.493,4.461-7.415,1.969-10.995c-2.494-3.579-7.414-4.464-10.995-1.969
			c-19.599,13.646-40.452,27.005-61.976,39.704c-46.089,27.195-91.571,49.374-131.947,64.392
			c-17.515-21.244-28.687-46.833-32.418-73.924c-0.019-0.137-0.035-0.274-0.053-0.412c-0.754-5.674-1.196-11.391-1.301-17.115
			c0-0.02-0.005-0.04-0.005-0.06c-0.016-0.896-0.031-1.792-0.031-2.691c0-81.699,66.467-148.167,148.167-148.167
			c41.521,0,80.178,17.437,107.623,46.374c12.942,13.645,23.229,29.72,30.158,47.207c-10.476,8.988-22.005,18.206-34.347,27.456
			c-3.49,2.616-4.199,7.567-1.583,11.057c2.615,3.491,7.568,4.202,11.057,1.583c14.3-10.718,27.556-21.41,39.401-31.78
			c0.066-0.058,0.133-0.114,0.197-0.174c3.962-3.472,7.737-6.876,11.218-10.119c26.941-25.08,44.955-48.284,48.188-62.069
			c0.972-4.144-1.514-8.314-5.622-9.427c-3.255-0.884-7.414-1.331-12.363-1.331c-17.577,0-44.021,5.903-74.86,16.678
			c-0.238-0.252-0.482-0.495-0.722-0.746c-0.173-0.179-0.346-0.358-0.52-0.536c-6.968-7.206-14.539-13.745-22.66-19.541
			c40.517-15.446,74.454-23.562,98.761-23.562c20.728,0,34.809,6.048,41.847,17.98c14.266,24.184-8.566,54.767-23.465,72.809
			c-17.851,21.616-39.507,39.719-61.242,57.266c-31.924,25.774-70.436,52.164-111.371,76.318
			c-41.103,24.253-82.816,45.221-120.629,60.637c-46.819,19.09-85.894,29.18-112.996,29.18c-20.728,0-34.807-6.048-41.845-17.976
			c-7.088-12.016-5.504-27.396,4.711-45.712c1.705-3.057,3.74-6.33,6.046-9.725c2.451-3.608,1.513-8.521-2.096-10.972
			c-3.606-2.451-8.519-1.513-10.972,2.096c-2.565,3.777-4.846,7.446-6.776,10.906c-13.142,23.57-14.664,44.239-4.519,61.434
			c10.081,17.084,28.738,25.747,55.451,25.747c28.422,0,68.277-9.996,115.431-28.923c4.764,2.602,9.675,4.991,14.657,7.099
			c20.015,8.471,42.023,12.894,63.983,12.894c1.82,0,3.641-0.031,5.46-0.092c4.36-0.147,7.776-3.799,7.629-8.16
			c-0.147-4.359-3.799-7.778-8.16-7.629c-21.476,0.728-43.179-3.277-62.755-11.563c-0.492-0.209-0.978-0.435-1.469-0.649
			c34.152-14.857,70.764-33.678,106.878-54.988c35.994-21.238,70.166-44.202,99.788-67.015
			c-1.921,20.466-8.069,40.386-18.071,58.287c-11.842,21.198-28.905,39.358-49.345,52.518c-11.66,7.507-24.288,13.325-37.531,17.291
			c-4.179,1.251-6.553,5.653-5.301,9.832c1.026,3.424,4.164,5.635,7.564,5.635c0.75,0,1.514-0.108,2.269-0.334
			c14.664-4.391,28.645-10.831,41.552-19.142c22.607-14.556,41.482-34.645,54.583-58.094c13.428-24.033,20.577-51.342,20.718-79.025
			c14.148-11.55,26.99-22.95,38.18-33.917c19.587-19.202,33.962-36.91,42.73-52.631
			C514.001,146.719,515.522,126.051,505.377,108.857z M125.894,355.791c-25.825,8.665-47.677,13.506-62.471,13.787
			c5.587-9.49,17.49-24.859,39.615-45.455c0.879-0.818,1.779-1.648,2.695-2.487C111.016,333.733,117.769,345.207,125.894,355.791z
			 M448.572,142.424c-5.589,9.491-17.491,24.859-39.616,45.454c-0.873,0.813-1.766,1.637-2.676,2.47
			c-5.38-12.306-12.182-23.742-20.179-34.137C411.927,147.547,433.778,142.707,448.572,142.424z"/>
	</g>
</g>
</svg>